<svg width="24" height="24" viewBox="0 0 24 24" fill="none" xmlns="http://www.w3.org/2000/svg">
<path d="M11 20.575V14.4L7.10005 18.3C6.91672 18.4833 6.68338 18.575 6.40005 18.575C6.11672 18.575 5.88338 18.4833 5.70005 18.3C5.51672 18.1167 5.42505 17.8833 5.42505 17.6C5.42505 17.3167 5.51672 17.0833 5.70005 16.9L10.6 12L5.70005 7.09999C5.51672 6.91666 5.42505 6.68333 5.42505 6.39999C5.42505 6.11666 5.51672 5.88333 5.70005 5.69999C5.88338 5.51666 6.11672 5.42499 6.40005 5.42499C6.68338 5.42499 6.91672 5.51666 7.10005 5.69999L11 9.59999V3.42499C11 3.12499 11.1 2.87933 11.3 2.68799C11.5 2.49666 11.7334 2.40066 12 2.39999C12.1334 2.39999 12.2584 2.42499 12.375 2.47499C12.4917 2.52499 12.6 2.59999 12.7 2.69999L17 6.99999C17.1 7.09999 17.171 7.20833 17.213 7.32499C17.255 7.44166 17.2757 7.56666 17.275 7.69999C17.2744 7.83333 17.2537 7.95833 17.213 8.07499C17.1724 8.19166 17.1014 8.29999 17 8.39999L13.4 12L17 15.6C17.1 15.7 17.171 15.8083 17.213 15.925C17.255 16.0417 17.2757 16.1667 17.275 16.3C17.2744 16.4333 17.2537 16.5583 17.213 16.675C17.1724 16.7917 17.1014 16.9 17 17L12.7 21.3C12.6 21.4 12.4917 21.475 12.375 21.525C12.2584 21.575 12.1334 21.6 12 21.6C11.7334 21.6 11.5 21.504 11.3 21.312C11.1 21.12 11 20.8743 11 20.575ZM13 9.59999L14.9 7.69999L13 5.84999V9.59999ZM13 18.15L14.9 16.3L13 14.4V18.15Z" fill="black"/>
</svg>
