<svg width="32" height="32" viewBox="0 0 32 32" fill="none" xmlns="http://www.w3.org/2000/svg">
<path d="M20.0626 18.4101L21.8297 14.6648C21.8797 14.5584 21.9026 14.4413 21.8964 14.3239L21.6164 9.24119C21.611 9.12977 21.5825 9.02068 21.5326 8.92092C21.4827 8.82116 21.4125 8.73291 21.3265 8.66183C21.2406 8.59075 21.1407 8.5384 21.0333 8.50814C20.926 8.47788 20.8135 8.47037 20.703 8.48608C19.9359 8.60519 18.9404 9.14342 18.9404 11.1381V13.3514C18.9402 13.4571 18.9165 13.5614 18.871 13.6568L17.1892 17.1732C17.1435 17.2698 17.0762 17.3547 16.9927 17.4214C16.9091 17.4881 16.8114 17.5349 16.707 17.5581C15.8626 17.7439 13.6159 18.139 12.119 17.4781" stroke="black" stroke-width="0.888889" stroke-linecap="round" stroke-linejoin="round"/>
<path d="M20.5737 8.51011C20.791 6.98833 21.731 6.60656 22.4159 6.53678C22.5128 6.52762 22.6107 6.53775 22.7037 6.56658C22.7967 6.59541 22.8831 6.64238 22.9579 6.70477C23.0327 6.76716 23.0944 6.84374 23.1394 6.93009C23.1845 7.01644 23.212 7.11086 23.2203 7.20789L23.8883 14.6421C23.9076 14.8518 23.8692 15.0629 23.7772 15.2523L22.2492 18.4101M14.1843 14.5812C16.0132 13.1612 17.3497 10.1128 17.4461 9.88878L17.4568 9.86122C17.535 9.64078 18.5088 7.011 20.2688 7.80478" stroke="black" stroke-width="0.888889" stroke-linecap="round" stroke-linejoin="round"/>
<path d="M22.6759 6.55765C22.9061 6.3077 23.2017 6.12712 23.5292 6.03632C23.6681 5.99768 23.8137 5.98976 23.9559 6.0131C24.0981 6.03645 24.2335 6.09051 24.3527 6.17152C24.472 6.25253 24.5721 6.35854 24.6462 6.48218C24.7202 6.60581 24.7665 6.74411 24.7817 6.88743L25.7394 15.5385C25.8114 16.1869 25.7352 16.843 25.5168 17.4577C24.7448 19.6261 22.7354 24.7572 20.8363 25.2834C18.0963 26.043 12.3821 26.063 12.3821 26.063C10.9546 26.063 9.58566 25.4959 8.57629 24.4866C7.56693 23.4772 6.99988 22.1082 6.99988 20.6808C6.99988 18.823 7.94121 17.0097 9.37277 16.2177C10.2654 15.626 11.3112 15.3072 12.3821 15.3003" stroke="black" stroke-width="0.888889" stroke-linecap="round" stroke-linejoin="round"/>
</svg>
