<svg width="32" height="32" viewBox="0 0 32 32" fill="none" xmlns="http://www.w3.org/2000/svg">
<path d="M12.6667 4V28M6.66666 9.33333H7.99999M6.66666 13.3333H7.99999M2.66666 16C2.66666 11.08 2.66666 8.62133 3.75199 6.87867C4.14292 6.2447 4.64152 5.68384 5.22532 5.22133C6.77332 4 8.95999 4 13.3333 4H18.6667C23.04 4 25.2253 4 26.7747 5.22133C27.348 5.672 27.8467 6.23333 28.248 6.87867C29.3333 8.62133 29.3333 11.08 29.3333 16C29.3333 20.92 29.3333 23.3787 28.248 25.1213C27.8571 25.7553 27.3585 26.3162 26.7747 26.7787C25.2267 28 23.04 28 18.6667 28H13.3333C8.95999 28 6.77466 28 5.22532 26.7787C4.64152 26.3162 4.14292 25.7553 3.75199 25.1213C2.66666 23.3787 2.66666 20.92 2.66666 16Z" stroke="black" stroke-width="2" stroke-linecap="round" stroke-linejoin="round"/>
</svg>
