<svg width="32" height="32" viewBox="0 0 32 32" fill="none" xmlns="http://www.w3.org/2000/svg">
<path d="M16 14.6667V14M21.3333 14.6667V14M10.6667 14.6667V14M4.61866 22.4373C2.66666 20.876 2.66666 19.6947 2.66666 14.6667C2.66666 9.63867 2.66666 7.124 4.61866 5.56267C6.57332 4 9.71466 4 16 4C22.2853 4 25.428 4 27.38 5.56267C29.332 7.12533 29.3333 9.63867 29.3333 14.6667C29.3333 19.6947 29.3333 20.876 27.38 22.4373C25.4293 24 22.2853 24 16 24C12.6533 24 10.9333 26.3173 7.99999 28V23.7173C6.54132 23.5 5.46799 23.1173 4.61866 22.4373Z" stroke="black" stroke-width="2" stroke-linecap="round" stroke-linejoin="round"/>
</svg>
