<svg width="24" height="24" viewBox="0 0 24 24" fill="none" xmlns="http://www.w3.org/2000/svg">
<path d="M9.75 2.65514L9 5.65514L4.37962 6.31523L12 8.22023L19.6204 6.31523L15 5.65514L14.25 2.65514L12.9718 3.50732L12.4092 5.75746H11.5908L11.0282 3.50728L9.75 2.65514ZM3.25214 6.90295L0.75 9.40518L3 12.4052L4.20797 11.1972L5.45573 7.45392L3.25214 6.90295ZM20.7479 6.90295L18.5443 7.45387L19.7921 11.1972L21 12.4051L23.25 9.40514L20.7479 6.90295ZM6.27675 7.65914L5.33348 10.4889L5.98083 13.0786L11.5781 16.1882V8.98453L6.27675 7.65914ZM17.7233 7.65914L12.4219 8.98453V16.1882L18.0191 13.0786L18.6665 10.4889L17.7233 7.65914ZM6.75 14.471V17.1107L11.5781 18.5464V17.1533L6.75 14.471ZM17.25 14.471L12.4219 17.1533V18.5464L17.25 17.1107V14.471ZM6.75 18.0119V20.6551L11.5781 21.3449V19.4475L6.75 18.0119ZM17.25 18.0119L12.4219 19.4475V21.3449L17.25 20.6552V18.0119Z" fill="black"/>
</svg>
