<svg width="32" height="32" viewBox="0 0 32 32" fill="none" xmlns="http://www.w3.org/2000/svg">
<path d="M23.0001 5.33334H9.00008C6.05456 5.33334 3.66675 7.72116 3.66675 10.6667V21.3333C3.66675 24.2789 6.05456 26.6667 9.00008 26.6667H23.0001C25.9456 26.6667 28.3334 24.2789 28.3334 21.3333V10.6667C28.3334 7.72116 25.9456 5.33334 23.0001 5.33334Z" stroke="black" stroke-width="2"/>
<path d="M16 21.6667C18.7614 21.6667 21 19.4281 21 16.6667C21 13.9053 18.7614 11.6667 16 11.6667C13.2386 11.6667 11 13.9053 11 16.6667C11 19.4281 13.2386 21.6667 16 21.6667Z" stroke="black" stroke-width="2"/>
<path d="M22.6667 9.33734H23.3334" stroke="black" stroke-width="2" stroke-linecap="round"/>
</svg>
