<svg width="32" height="32" viewBox="0 0 32 32" fill="none" xmlns="http://www.w3.org/2000/svg">
<path fill-rule="evenodd" clip-rule="evenodd" d="M15.924 1.66669H16.076C19.1547 1.66669 21.5667 1.66669 23.4493 1.92002C25.3747 2.17869 26.8947 2.72002 28.088 3.91202C29.2813 5.10535 29.8213 6.62535 30.08 8.55202C30.3333 10.4334 30.3333 12.8454 30.3333 15.924V16.076C30.3333 19.1547 30.3333 21.5667 30.08 23.4494C29.8213 25.3747 29.28 26.8947 28.088 28.088C26.8947 29.2814 25.3747 29.8214 23.448 30.08C21.5667 30.3334 19.1547 30.3334 16.076 30.3334H15.924C12.8453 30.3334 10.4333 30.3334 8.55066 30.08C6.62532 29.8214 5.10532 29.28 3.91199 28.088C2.71866 26.8947 2.17866 25.3747 1.91999 23.448C1.66666 21.5667 1.66666 19.1547 1.66666 16.076V15.924C1.66666 12.8454 1.66666 10.4334 1.91999 8.55069C2.17866 6.62535 2.71999 5.10535 3.91199 3.91202C5.10532 2.71869 6.62532 2.17869 8.55199 1.92002C10.4333 1.66669 12.8453 1.66669 15.924 1.66669ZM8.81732 3.90135C7.11332 4.13069 6.08532 4.56802 5.32666 5.32669C4.56666 6.08669 4.13066 7.11335 3.90132 8.81869C3.66932 10.552 3.66666 12.8294 3.66666 16C3.66666 19.1707 3.66932 21.448 3.90132 23.1814C4.13066 24.8867 4.56799 25.9147 5.32666 26.6747C6.08666 27.4334 7.11332 27.8694 8.81866 28.0987C10.552 28.3307 12.8293 28.3334 16 28.3334C19.1707 28.3334 21.448 28.3307 23.1813 28.0987C24.8867 27.8694 25.9147 27.432 26.6747 26.6734C27.4333 25.9134 27.8693 24.8867 28.0987 23.1814C28.3307 21.448 28.3333 19.1707 28.3333 16C28.3333 12.8294 28.3307 10.552 28.0987 8.81869C27.8693 7.11335 27.432 6.08535 26.6733 5.32535C25.9133 4.56669 24.8867 4.13069 23.1813 3.90135C21.448 3.66935 19.1707 3.66669 16 3.66669C12.8293 3.66669 10.5507 3.66935 8.81732 3.90135ZM15.0013 9.07069C13.3353 9.31148 11.8118 10.1445 10.7099 11.4171C9.60799 12.6897 9.00149 14.3167 9.00149 16C9.00149 17.6834 9.60799 19.3104 10.7099 20.583C11.8118 21.8556 13.3353 22.6886 15.0013 22.9294V22C15.0013 21.7348 15.1067 21.4805 15.2942 21.2929C15.4818 21.1054 15.7361 21 16.0013 21C16.2665 21 16.5209 21.1054 16.7084 21.2929C16.896 21.4805 17.0013 21.7348 17.0013 22V22.9294C18.6674 22.6886 20.1909 21.8556 21.2928 20.583C22.3947 19.3104 23.0012 17.6834 23.0012 16C23.0012 14.3167 22.3947 12.6897 21.2928 11.4171C20.1909 10.1445 18.6674 9.31148 17.0013 9.07069V10C17.0013 10.2652 16.896 10.5196 16.7084 10.7071C16.5209 10.8947 16.2665 11 16.0013 11C15.7361 11 15.4818 10.8947 15.2942 10.7071C15.1067 10.5196 15.0013 10.2652 15.0013 10V9.07069ZM6.99999 16C6.99999 13.6131 7.9482 11.3239 9.63603 9.63606C11.3239 7.94823 13.613 7.00002 16 7.00002C18.3869 7.00002 20.6761 7.94823 22.364 9.63606C24.0518 11.3239 25 13.6131 25 16C25 18.387 24.0518 20.6762 22.364 22.364C20.6761 24.0518 18.3869 25 16 25C13.613 25 11.3239 24.0518 9.63603 22.364C7.9482 20.6762 6.99999 18.387 6.99999 16Z" fill="black"/>
<path d="M20 16C20 16.3536 19.8595 16.6928 19.6095 16.9428C19.3594 17.1929 19.0203 17.3334 18.6667 17.3334C18.313 17.3334 17.9739 17.1929 17.7239 16.9428C17.4738 16.6928 17.3333 16.3536 17.3333 16C17.3333 15.6464 17.4738 15.3073 17.7239 15.0572C17.9739 14.8072 18.313 14.6667 18.6667 14.6667C19.0203 14.6667 19.3594 14.8072 19.6095 15.0572C19.8595 15.3073 20 15.6464 20 16ZM14.6667 16C14.6667 16.3536 14.5262 16.6928 14.2761 16.9428C14.0261 17.1929 13.687 17.3334 13.3333 17.3334C12.9797 17.3334 12.6406 17.1929 12.3905 16.9428C12.1405 16.6928 12 16.3536 12 16C12 15.6464 12.1405 15.3073 12.3905 15.0572C12.6406 14.8072 12.9797 14.6667 13.3333 14.6667C13.687 14.6667 14.0261 14.8072 14.2761 15.0572C14.5262 15.3073 14.6667 15.6464 14.6667 16Z" fill="black"/>
</svg>
