<svg width="32" height="32" viewBox="0 0 32 32" fill="none" xmlns="http://www.w3.org/2000/svg">
<path d="M19.7188 12.5714C20.4008 12.5714 21.0549 12.8423 21.5371 13.3246C22.0194 13.8068 22.2903 14.4609 22.2903 15.1429V22.2846C22.2903 23.952 21.6279 25.551 20.4489 26.7301C19.2699 27.9091 17.6708 28.5714 16.0034 28.5714C14.336 28.5714 12.737 27.9091 11.5579 26.7301C10.3789 25.551 9.71656 23.952 9.71656 22.2846V15.1429C9.71656 14.4609 9.98748 13.8068 10.4697 13.3246C10.952 12.8423 11.606 12.5714 12.288 12.5714H19.7188ZM19.7188 14.2857H12.288C12.0607 14.2857 11.8426 14.376 11.6819 14.5368C11.5212 14.6975 11.4309 14.9155 11.4309 15.1429V22.2846C11.4309 23.4973 11.9126 24.6603 12.7701 25.5179C13.6276 26.3754 14.7907 26.8571 16.0034 26.8571C17.2161 26.8571 18.3792 26.3754 19.2367 25.5179C20.0942 24.6603 20.576 23.4973 20.576 22.2846V15.1429C20.576 14.9155 20.4857 14.6975 20.3249 14.5368C20.1642 14.376 19.9462 14.2857 19.7188 14.2857ZM4.85714 12.5714H9.60685C9.14788 13.0491 8.82544 13.6411 8.67314 14.2857H4.85714C4.62981 14.2857 4.41179 14.376 4.25104 14.5368C4.0903 14.6975 3.99999 14.9155 3.99999 15.1429V21.1417C3.99954 21.7153 4.14298 22.2797 4.41717 22.7835C4.69137 23.2873 5.08755 23.7142 5.56946 24.0252C6.05136 24.3362 6.60358 24.5213 7.17556 24.5636C7.74754 24.606 8.32099 24.5041 8.84342 24.2674C8.99542 24.8274 9.21371 25.36 9.48799 25.8583C8.705 26.2005 7.8491 26.3422 6.99761 26.2705C6.14612 26.1989 5.3259 25.9163 4.61105 25.4482C3.8962 24.98 3.30926 24.3412 2.90327 23.5893C2.49728 22.8374 2.28503 21.9962 2.28571 21.1417V15.1429C2.28571 14.4609 2.55662 13.8068 3.03886 13.3246C3.5211 12.8423 4.17515 12.5714 4.85714 12.5714ZM27.1429 12.5714C27.8248 12.5714 28.4789 12.8423 28.9611 13.3246C29.4434 13.8068 29.7143 14.4609 29.7143 15.1429V21.1429C29.7146 21.9968 29.5023 22.8373 29.0966 23.5887C28.6909 24.34 28.1044 24.9785 27.3902 25.4465C26.676 25.9145 25.8565 26.1973 25.0056 26.2694C24.1548 26.3415 23.2993 26.2006 22.5166 25.8594L22.5806 25.7429C22.8251 25.2789 23.0229 24.7863 23.1646 24.2697C23.6867 24.5047 24.2594 24.6051 24.8304 24.5619C25.4013 24.5186 25.9524 24.3331 26.4332 24.0221C26.914 23.7112 27.3093 23.2848 27.583 22.7819C27.8567 22.2789 28 21.7155 28 21.1429V15.1429C28 14.9157 27.9098 14.6979 27.7493 14.5372C27.5888 14.3765 27.3711 14.286 27.144 14.2857H23.3349C23.1822 13.6409 22.8594 13.0489 22.4 12.5714H27.1429ZM16 3.42857C16.5253 3.42857 17.0454 3.53204 17.5307 3.73306C18.016 3.93407 18.457 4.22871 18.8284 4.60015C19.1999 4.97158 19.4945 5.41254 19.6955 5.89784C19.8965 6.38314 20 6.90329 20 7.42857C20 7.95386 19.8965 8.47401 19.6955 8.95931C19.4945 9.44461 19.1999 9.88557 18.8284 10.257C18.457 10.6284 18.016 10.9231 17.5307 11.1241C17.0454 11.3251 16.5253 11.4286 16 11.4286C14.9391 11.4286 13.9217 11.0071 13.1716 10.257C12.4214 9.50686 12 8.48944 12 7.42857C12 6.36771 12.4214 5.35029 13.1716 4.60015C13.9217 3.85 14.9391 3.42857 16 3.42857ZM25.1463 4.57143C25.5965 4.57143 26.0424 4.66011 26.4583 4.83242C26.8743 5.00472 27.2523 5.25726 27.5706 5.57564C27.889 5.89401 28.1416 6.27197 28.3139 6.68794C28.4862 7.10392 28.5749 7.54976 28.5749 8C28.5749 8.45025 28.4862 8.89609 28.3139 9.31206C28.1416 9.72803 27.889 10.106 27.5706 10.4244C27.2523 10.7427 26.8743 10.9953 26.4583 11.1676C26.0424 11.3399 25.5965 11.4286 25.1463 11.4286C24.237 11.4286 23.3649 11.0674 22.7219 10.4244C22.0789 9.78139 21.7177 8.90932 21.7177 8C21.7177 7.09069 22.0789 6.21862 22.7219 5.57564C23.3649 4.93265 24.237 4.57143 25.1463 4.57143ZM6.85371 4.57143C7.30395 4.57143 7.74979 4.66011 8.16577 4.83242C8.58174 5.00472 8.9597 5.25726 9.27807 5.57564C9.59645 5.89401 9.84899 6.27197 10.0213 6.68794C10.1936 7.10392 10.2823 7.54976 10.2823 8C10.2823 8.45025 10.1936 8.89609 10.0213 9.31206C9.84899 9.72803 9.59645 10.106 9.27807 10.4244C8.9597 10.7427 8.58174 10.9953 8.16577 11.1676C7.74979 11.3399 7.30395 11.4286 6.85371 11.4286C5.94439 11.4286 5.07232 11.0674 4.42934 10.4244C3.78636 9.78139 3.42514 8.90932 3.42514 8C3.42514 7.09069 3.78636 6.21862 4.42934 5.57564C5.07232 4.93265 5.94439 4.57143 6.85371 4.57143ZM16 5.14286C15.3938 5.14286 14.8124 5.38367 14.3837 5.81233C13.9551 6.24098 13.7143 6.82236 13.7143 7.42857C13.7143 8.03478 13.9551 8.61616 14.3837 9.04482C14.8124 9.47347 15.3938 9.71429 16 9.71429C16.6062 9.71429 17.1876 9.47347 17.6162 9.04482C18.0449 8.61616 18.2857 8.03478 18.2857 7.42857C18.2857 6.82236 18.0449 6.24098 17.6162 5.81233C17.1876 5.38367 16.6062 5.14286 16 5.14286ZM25.1463 6.28572C24.9212 6.28572 24.6982 6.33006 24.4903 6.41621C24.2823 6.50236 24.0933 6.62863 23.9341 6.78782C23.7749 6.94701 23.6486 7.13599 23.5625 7.34397C23.4763 7.55196 23.432 7.77488 23.432 8C23.432 8.22513 23.4763 8.44804 23.5625 8.65603C23.6486 8.86402 23.7749 9.053 23.9341 9.21219C24.0933 9.37137 24.2823 9.49765 24.4903 9.5838C24.6982 9.66995 24.9212 9.71429 25.1463 9.71429C25.6009 9.71429 26.037 9.53368 26.3585 9.21219C26.68 8.89069 26.8606 8.45466 26.8606 8C26.8606 7.54535 26.68 7.10931 26.3585 6.78782C26.037 6.46633 25.6009 6.28572 25.1463 6.28572ZM6.85371 6.28572C6.62858 6.28572 6.40567 6.33006 6.19768 6.41621C5.98969 6.50236 5.80071 6.62863 5.64152 6.78782C5.48234 6.94701 5.35606 7.13599 5.26991 7.34397C5.18376 7.55196 5.13942 7.77488 5.13942 8C5.13942 8.22513 5.18376 8.44804 5.26991 8.65603C5.35606 8.86402 5.48234 9.053 5.64152 9.21219C5.80071 9.37137 5.98969 9.49765 6.19768 9.5838C6.40567 9.66995 6.62858 9.71429 6.85371 9.71429C7.30836 9.71429 7.7444 9.53368 8.06589 9.21219C8.38738 8.89069 8.56799 8.45466 8.56799 8C8.56799 7.54535 8.38738 7.10931 8.06589 6.78782C7.7444 6.46633 7.30836 6.28572 6.85371 6.28572Z" fill="black"/>
</svg>
