<svg width="32" height="32" viewBox="0 0 32 32" fill="none" xmlns="http://www.w3.org/2000/svg">
<path d="M21.3102 18.144C21.7778 18.2222 23.9866 16.9786 24.9311 16.3555C24.9816 16.3222 25.0331 16.2907 25.0858 16.2609C26.8978 15.2333 28.2084 14.9053 29.3329 16.4369C29.764 17.0564 30.0689 18.3778 29.3049 18.5422C25.7777 19.5555 23.1111 23.1111 23.1111 23.1111C22.2191 24.1373 20.8946 26.1666 19.988 27.1795C16.7622 30.784 10.1035 31.3195 7.60309 27.1795C6.45375 25.2773 5.70086 20.7871 4.96442 18.6898C4.39997 17.0818 2.47375 12.3431 2.47375 12.3431C1.61286 9.75953 4.26531 8.71776 5.50175 11.3244L6.90753 14.5658C7.31642 15.5235 8.49997 15.9195 8.24886 14.2813L6.73064 7.19864C6.16842 4.14842 9.29331 3.28753 10.0818 6.6342L11.716 14.5782C11.716 14.8564 12.5711 16.8426 12.388 13.3178L11.9764 4.39331C11.9764 0.6342 15.452 0.856423 15.452 4.39331L15.9026 14.1658C15.9026 14.1658 16.2031 16.4262 17.0204 14.1658L18.6458 5.09376C19.2933 2.37065 22.5435 3.34264 22.0124 5.98842L20.1458 16.4066C19.988 17.2569 20.168 18.1253 20.9831 18.1253L21.3102 18.144Z" stroke="black" stroke-width="0.888889" stroke-linecap="round" stroke-linejoin="round"/>
</svg>
