<svg width="24" height="24" viewBox="0 0 24 24" fill="none" xmlns="http://www.w3.org/2000/svg">
<path d="M12 1.25C12.1235 1.25001 12.245 1.2805 12.3539 1.33876C12.4627 1.39703 12.5555 1.48127 12.624 1.584L14.624 4.584C14.6799 4.66592 14.719 4.75811 14.7391 4.85525C14.7591 4.95239 14.7597 5.05254 14.7408 5.1499C14.7219 5.24727 14.6839 5.33991 14.6289 5.42248C14.5739 5.50504 14.5031 5.57588 14.4206 5.6309C14.3381 5.68592 14.2455 5.72402 14.1481 5.743C14.0507 5.76198 13.9506 5.76146 13.8534 5.74148C13.7563 5.72149 13.6641 5.68243 13.5821 5.62656C13.5002 5.5707 13.4301 5.49913 13.376 5.416L12.75 4.477V14.992C12.8713 14.93 12.998 14.8767 13.13 14.832L16.395 13.744C16.905 13.574 17.25 13.097 17.25 12.559V10.709C17.0106 10.6673 16.7896 10.554 16.616 10.384C16.4232 10.1841 16.3032 9.92527 16.275 9.649C16.254 9.44471 16.2457 9.23932 16.25 9.034V8.966C16.25 8.76 16.25 8.539 16.275 8.351C16.305 8.132 16.38 7.851 16.616 7.616C16.852 7.38 17.132 7.305 17.351 7.275C17.539 7.25 17.761 7.25 17.966 7.25H18.035C18.24 7.25 18.461 7.25 18.649 7.275C18.868 7.305 19.149 7.38 19.384 7.616C19.62 7.852 19.695 8.132 19.725 8.351C19.75 8.539 19.75 8.761 19.75 8.966V9.034C19.75 9.24 19.75 9.461 19.725 9.649C19.695 9.868 19.62 10.149 19.384 10.384C19.184 10.584 18.95 10.669 18.75 10.708V12.558C18.7503 13.1353 18.5688 13.6981 18.2314 14.1665C17.894 14.635 17.4177 14.9854 16.87 15.168L13.605 16.256C13.356 16.3389 13.1395 16.4981 12.986 16.711C12.8326 16.9238 12.75 17.1796 12.75 17.442V18.145C13.1803 18.3191 13.5366 18.6373 13.7579 19.0453C13.9793 19.4533 14.0518 19.9255 13.9632 20.3811C13.8745 20.8367 13.6302 21.2472 13.272 21.5424C12.9138 21.8376 12.4641 21.9991 12 21.9991C11.5359 21.9991 11.0862 21.8376 10.728 21.5424C10.3698 21.2472 10.1255 20.8367 10.0368 20.3811C9.94817 19.9255 10.0207 19.4533 10.2421 19.0453C10.4634 18.6373 10.8197 18.3191 11.25 18.145V14.442C11.25 14.1796 11.1674 13.9238 11.014 13.711C10.8605 13.4981 10.644 13.3389 10.395 13.256L7.13 12.167C6.58249 11.9844 6.10631 11.6342 5.7689 11.1659C5.43149 10.6977 5.24995 10.1352 5.25 9.558V7.582C4.89101 7.41171 4.60065 7.12433 4.42667 6.76711C4.2527 6.40989 4.20546 6.0041 4.29274 5.61647C4.38001 5.22884 4.5966 4.88245 4.90688 4.63426C5.21716 4.38607 5.60267 4.25086 6 4.25086C6.39733 4.25086 6.78284 4.38607 7.09312 4.63426C7.4034 4.88245 7.61999 5.22884 7.70726 5.61647C7.79454 6.0041 7.7473 6.40989 7.57333 6.76711C7.39935 7.12433 7.109 7.41171 6.75 7.582V9.558C6.75 10.097 7.094 10.574 7.605 10.744L10.87 11.833C11.002 11.877 11.1287 11.93 11.25 11.992V4.477L10.624 5.416C10.5699 5.49913 10.4998 5.5707 10.4179 5.62656C10.3359 5.68243 10.2437 5.72149 10.1466 5.74148C10.0494 5.76146 9.94925 5.76198 9.8519 5.743C9.75455 5.72402 9.66193 5.68592 9.5794 5.6309C9.49688 5.57588 9.42608 5.50504 9.37112 5.42248C9.31615 5.33991 9.27811 5.24727 9.25919 5.1499C9.24028 5.05254 9.24086 4.95239 9.26091 4.85525C9.28096 4.75811 9.32008 4.66592 9.376 4.584L11.376 1.584C11.4445 1.48127 11.5373 1.39703 11.6461 1.33876C11.755 1.2805 11.8765 1.25001 12 1.25Z" fill="black"/>
</svg>
