<svg width="24" height="24" viewBox="0 0 24 24" fill="none" xmlns="http://www.w3.org/2000/svg">
<path d="M12 21C11.3 21 10.7083 20.7583 10.225 20.275C9.74164 19.7917 9.49997 19.2 9.49997 18.5C9.49997 17.8 9.74164 17.2083 10.225 16.725C10.7083 16.2417 11.3 16 12 16C12.7 16 13.2916 16.2417 13.775 16.725C14.2583 17.2083 14.5 17.8 14.5 18.5C14.5 19.2 14.2583 19.7917 13.775 20.275C13.2916 20.7583 12.7 21 12 21ZM12 10C13.25 10 14.4376 10.2 15.563 10.6C16.6883 11 17.709 11.55 18.625 12.25C18.9583 12.5 19.1293 12.8293 19.138 13.238C19.1466 13.6467 19.0006 14.0007 18.7 14.3C18.4166 14.5833 18.0666 14.7293 17.65 14.738C17.2333 14.7467 16.8583 14.634 16.525 14.4C15.8916 13.9667 15.1916 13.625 14.425 13.375C13.6583 13.125 12.85 13 12 13C11.15 13 10.3416 13.125 9.57497 13.375C8.80831 13.625 8.10831 13.9667 7.47497 14.4C7.14164 14.6333 6.76664 14.7417 6.34997 14.725C5.93331 14.7083 5.58331 14.5583 5.29997 14.275C5.01664 13.975 4.87497 13.621 4.87497 13.213C4.87497 12.805 5.04164 12.4757 5.37497 12.225C6.29164 11.525 7.31264 10.979 8.43797 10.587C9.56331 10.195 10.7506 9.99933 12 10ZM12 4C14.0833 4 16.046 4.34167 17.888 5.025C19.73 5.70833 21.384 6.675 22.85 7.925C23.1833 8.20833 23.3583 8.55833 23.375 8.975C23.3916 9.39167 23.25 9.75 22.95 10.05C22.6666 10.3333 22.3166 10.4793 21.9 10.488C21.4833 10.4967 21.1083 10.3673 20.775 10.1C19.575 9.11667 18.2293 8.35433 16.738 7.813C15.2466 7.27167 13.6673 7.00067 12 7C10.3326 6.99933 8.75364 7.27033 7.26297 7.813C5.77231 8.35567 4.42631 9.118 3.22497 10.1C2.89164 10.3667 2.51664 10.496 2.09997 10.488C1.68331 10.48 1.33331 10.334 1.04997 10.05C0.749973 9.75 0.608306 9.39167 0.624973 8.975C0.64164 8.55833 0.81664 8.20833 1.14997 7.925C2.61664 6.675 4.27097 5.70833 6.11297 5.025C7.95497 4.34167 9.91731 4 12 4Z" fill="black"/>
</svg>
