<svg width="24" height="25" viewBox="0 0 24 25" fill="none" xmlns="http://www.w3.org/2000/svg">
<path d="M20.25 4.625H3.75C3.45163 4.625 3.16548 4.74353 2.9545 4.9545C2.74353 5.16548 2.625 5.45163 2.625 5.75V19.25C2.625 19.5484 2.74353 19.8345 2.9545 20.0455C3.16548 20.2565 3.45163 20.375 3.75 20.375H20.25C20.5484 20.375 20.8345 20.2565 21.0455 20.0455C21.2565 19.8345 21.375 19.5484 21.375 19.25V5.75C21.375 5.45163 21.2565 5.16548 21.0455 4.9545C20.8345 4.74353 20.5484 4.625 20.25 4.625ZM3.375 8.375H11.625V16.625H3.375V8.375ZM12.375 7.625V5.375H16.125V7.625H12.375ZM11.625 7.625H7.875V5.375H11.625V7.625ZM11.625 17.375V19.625H7.875V17.375H11.625ZM12.375 17.375H16.125V19.625H12.375V17.375ZM12.375 16.625V8.375H20.625V16.625H12.375ZM20.625 5.75V7.625H16.875V5.375H20.25C20.3495 5.375 20.4448 5.41451 20.5152 5.48484C20.5855 5.55516 20.625 5.65054 20.625 5.75ZM3.75 5.375H7.125V7.625H3.375V5.75C3.375 5.65054 3.41451 5.55516 3.48484 5.48484C3.55516 5.41451 3.65054 5.375 3.75 5.375ZM3.375 19.25V17.375H7.125V19.625H3.75C3.65054 19.625 3.55516 19.5855 3.48484 19.5152C3.41451 19.4448 3.375 19.3495 3.375 19.25ZM20.25 19.625H16.875V17.375H20.625V19.25C20.625 19.3495 20.5855 19.4448 20.5152 19.5152C20.4448 19.5855 20.3495 19.625 20.25 19.625Z" fill="black"/>
</svg>
