<svg width="32" height="32" viewBox="0 0 32 32" fill="none" xmlns="http://www.w3.org/2000/svg">
<path d="M7 16.6666C7 9.33331 9.93333 3.33331 13.6667 3.33331C16.6 3.33331 19.1333 7.19998 20.0667 12.6666L24.3333 12.6666L19 18L13.6667 12.6666H17.2667C16.4667 8.39998 14.7333 5.99998 13.6667 5.99998C12.2 5.99998 9.66667 9.99998 9.66667 16.6666C9.66667 23.3333 12.2 27.3333 13.6667 27.3333C14.6 27.3333 16.2 25.3333 17 22H19.8C18.7333 26.6666 16.4667 30 13.6667 30C9.93333 30 7 24 7 16.6666Z" fill="black"/>
</svg>
