<svg width="24" height="25" viewBox="0 0 24 25" fill="none" xmlns="http://www.w3.org/2000/svg">
<path d="M19.4343 1.44969C18.675 1.44969 17.8734 1.45063 17.0718 1.45297C14.0015 1.4586 11.2078 1.46985 10.9547 1.46985C10.0781 3.30922 9.4031 5.3375 8.83122 7.44688C10.65 7.97188 12.4453 8.75938 13.9687 9.6875C14.8781 10.2406 15.6937 10.8359 16.3547 11.4641C17.0859 10.4891 17.9625 9.25157 18.839 7.96719C19.8609 6.47188 20.8875 4.90954 21.6937 3.61438C22.2422 2.73266 22.6781 1.97 22.9453 1.45719C22.5843 1.45532 22.0968 1.45063 21.5062 1.45063V1.45297C20.8968 1.45063 20.189 1.44969 19.4343 1.44969ZM7.42497 7.9625C7.21872 8.31407 7.01247 8.675 6.81091 9.04532C9.91403 9.15313 12.9843 10.8688 14.7984 12.4625L15.0937 12.725L14.8593 13.0344C14.475 13.5406 14.1281 14.7781 14.6953 16.1516L14.9625 16.7938L14.2687 16.7328C11.2922 16.4563 8.29685 16.9531 5.4656 18.2234C5.5406 18.4859 5.62497 18.7484 5.72341 19.0203C8.83591 17.6469 12.525 17.1594 16.664 17.8203C17.3672 16.6766 17.6437 15.5516 17.1468 14.0281C16.7718 12.8984 15.3937 11.5438 13.5281 10.4094C11.7468 9.32188 9.53903 8.43125 7.42497 7.9625ZM6.52028 9.88438H6.38435C5.3531 12.0172 4.65325 14.4547 5.26403 17.3891C7.97341 16.2031 10.8468 15.6875 13.7062 15.8516C13.3828 14.6703 13.5703 13.6016 13.964 12.875C12.1922 11.4172 9.26716 9.89375 6.52028 9.88438ZM12.9422 18.3688C10.9968 18.3828 9.19216 18.6828 7.54216 19.2219C8.02966 20.7219 8.68122 22.2078 9.47341 23.6516H15.9515C15.8812 21.9219 15.6422 20.1734 15.225 18.4813C14.4422 18.3969 13.6828 18.3641 12.9422 18.3688Z" fill="black"/>
</svg>
