<svg width="32" height="32" viewBox="0 0 32 32" fill="none" xmlns="http://www.w3.org/2000/svg">
<path d="M11 6.5C11.8284 6.5 12.5 5.82843 12.5 5C12.5 4.17157 11.8284 3.5 11 3.5C10.1716 3.5 9.5 4.17157 9.5 5C9.5 5.82843 10.1716 6.5 11 6.5Z" stroke="#666666" stroke-width="3" stroke-linecap="round" stroke-linejoin="round"/>
<path d="M11 17.5C11.8284 17.5 12.5 16.8284 12.5 16C12.5 15.1716 11.8284 14.5 11 14.5C10.1716 14.5 9.5 15.1716 9.5 16C9.5 16.8284 10.1716 17.5 11 17.5Z" stroke="#666666" stroke-width="3" stroke-linecap="round" stroke-linejoin="round"/>
<path d="M11 28.5C11.8284 28.5 12.5 27.8284 12.5 27C12.5 26.1716 11.8284 25.5 11 25.5C10.1716 25.5 9.5 26.1716 9.5 27C9.5 27.8284 10.1716 28.5 11 28.5Z" stroke="#666666" stroke-width="3" stroke-linecap="round" stroke-linejoin="round"/>
<path d="M20.9919 6.5C21.8204 6.5 22.4919 5.82843 22.4919 5C22.4919 4.17157 21.8204 3.5 20.9919 3.5C20.1635 3.5 19.4919 4.17157 19.4919 5C19.4919 5.82843 20.1635 6.5 20.9919 6.5Z" stroke="#666666" stroke-width="3" stroke-linecap="round" stroke-linejoin="round"/>
<path d="M20.9919 17.5C21.8204 17.5 22.4919 16.8284 22.4919 16C22.4919 15.1716 21.8204 14.5 20.9919 14.5C20.1635 14.5 19.4919 15.1716 19.4919 16C19.4919 16.8284 20.1635 17.5 20.9919 17.5Z" stroke="#666666" stroke-width="3" stroke-linecap="round" stroke-linejoin="round"/>
<path d="M20.9919 28.5C21.8204 28.5 22.4919 27.8284 22.4919 27C22.4919 26.1716 21.8204 25.5 20.9919 25.5C20.1635 25.5 19.4919 26.1716 19.4919 27C19.4919 27.8284 20.1635 28.5 20.9919 28.5Z" stroke="#666666" stroke-width="3" stroke-linecap="round" stroke-linejoin="round"/>
</svg>
