<svg width="24" height="25" viewBox="0 0 24 25" fill="none" xmlns="http://www.w3.org/2000/svg">
<g clip-path="url(#clip0_55_247)">
<path fill-rule="evenodd" clip-rule="evenodd" d="M13.125 1.625C13.125 1.32663 13.0065 1.04048 12.7955 0.829505C12.5845 0.618526 12.2984 0.5 12 0.5C11.7016 0.5 11.4155 0.618526 11.2045 0.829505C10.9935 1.04048 10.875 1.32663 10.875 1.625V5.417C9.57343 5.51404 8.28877 5.77098 7.05 6.182C6.56372 6.34227 6.08695 6.53007 5.622 6.7445C5.45092 6.8227 5.28234 6.90624 5.1165 6.995L5.0835 7.013L5.073 7.019L5.07 7.022H5.0685L5.625 8L5.067 7.0235C4.89481 7.12186 4.75168 7.26397 4.65211 7.43546C4.55254 7.60695 4.50006 7.8017 4.5 8V11.375C4.5 11.6734 4.61853 11.9595 4.8295 12.1705C5.04048 12.3815 5.32663 12.5 5.625 12.5C5.92337 12.5 6.20952 12.3815 6.4205 12.1705C6.63147 11.9595 6.75 11.6734 6.75 11.375V8.705C8.41023 7.99772 10.1954 7.63049 12 7.625C13.8046 7.63049 15.5898 7.99772 17.25 8.705V11.375C17.25 11.6734 17.3685 11.9595 17.5795 12.1705C17.7905 12.3815 18.0766 12.5 18.375 12.5C18.6734 12.5 18.9595 12.3815 19.1705 12.1705C19.3815 11.9595 19.5 11.6734 19.5 11.375V8C19.4999 7.8017 19.4475 7.60695 19.3479 7.43546C19.2483 7.26397 19.1052 7.12186 18.933 7.0235L18.93 7.022L18.927 7.019L18.9165 7.013L18.8835 6.995C18.7177 6.90573 18.5491 6.82169 18.378 6.743C17.913 6.52908 17.4363 6.34178 16.95 6.182C15.7112 5.77098 14.4266 5.51404 13.125 5.417V1.625ZM15.75 18.5C15.75 19.4946 15.3549 20.4484 14.6517 21.1517C13.9484 21.8549 12.9946 22.25 12 22.25C11.0054 22.25 10.0516 21.8549 9.34835 21.1517C8.64509 20.4484 8.25 19.4946 8.25 18.5C8.25 17.5054 8.64509 16.5516 9.34835 15.8483C10.0516 15.1451 11.0054 14.75 12 14.75C12.9946 14.75 13.9484 15.1451 14.6517 15.8483C15.3549 16.5516 15.75 17.5054 15.75 18.5ZM17.895 19.625C17.6331 20.9966 16.9011 22.234 15.8251 23.124C14.7491 24.014 13.3964 24.5009 12 24.5009C10.6036 24.5009 9.25092 24.014 8.1749 23.124C7.09889 22.234 6.3669 20.9966 6.105 19.625H1.125C0.826631 19.625 0.540483 19.5065 0.329505 19.2955C0.118526 19.0845 0 18.7984 0 18.5C0 18.2016 0.118526 17.9155 0.329505 17.7045C0.540483 17.4935 0.826631 17.375 1.125 17.375H6.105C6.3669 16.0034 7.09889 14.766 8.1749 13.876C9.25092 12.986 10.6036 12.4991 12 12.4991C13.3964 12.4991 14.7491 12.986 15.8251 13.876C16.9011 14.766 17.6331 16.0034 17.895 17.375H22.875C23.1734 17.375 23.4595 17.4935 23.6705 17.7045C23.8815 17.9155 24 18.2016 24 18.5C24 18.7984 23.8815 19.0845 23.6705 19.2955C23.4595 19.5065 23.1734 19.625 22.875 19.625H17.895Z" fill="black"/>
</g>
<defs>
<clipPath id="clip0_55_247">
<rect width="24" height="24" fill="white" transform="translate(0 0.5)"/>
</clipPath>
</defs>
</svg>
