<svg width="32" height="32" viewBox="0 0 32 32" fill="none" xmlns="http://www.w3.org/2000/svg">
<path d="M6.66663 16C6.66663 17.2257 6.90804 18.4393 7.37708 19.5717C7.84613 20.7041 8.53362 21.733 9.4003 22.5997C10.267 23.4663 11.2959 24.1538 12.4282 24.6229C13.5606 25.0919 14.7743 25.3333 16 25.3333C17.2256 25.3333 18.4393 25.0919 19.5717 24.6229C20.704 24.1538 21.7329 23.4663 22.5996 22.5997C23.4663 21.733 24.1538 20.7041 24.6228 19.5717C25.0919 18.4393 25.3333 17.2257 25.3333 16M6.66663 16C6.66663 14.7743 6.90804 13.5607 7.37708 12.4283C7.84613 11.2959 8.53362 10.267 9.4003 9.40033C10.267 8.53365 11.2959 7.84617 12.4282 7.37712C13.5606 6.90808 14.7743 6.66666 16 6.66666C17.2256 6.66666 18.4393 6.90808 19.5717 7.37712C20.704 7.84617 21.7329 8.53365 22.5996 9.40033C23.4663 10.267 24.1538 11.2959 24.6228 12.4283C25.0919 13.5607 25.3333 14.7743 25.3333 16M6.66663 16H2.66663M25.3333 16H29.3333" stroke="black" stroke-width="1.6" stroke-linecap="round" stroke-linejoin="round"/>
<path d="M13.3334 18.6667V13.3333L16 16L18.6667 13.3333V18.6667" stroke="black" stroke-width="1.33333" stroke-linecap="round" stroke-linejoin="round"/>
</svg>
