<svg width="32" height="32" viewBox="0 0 32 32" fill="none" xmlns="http://www.w3.org/2000/svg">
<path d="M19.3333 4V28M25.3333 9.33333H24M25.3333 13.3333H24M29.3333 16C29.3333 11.08 29.3333 8.62133 28.248 6.87867C27.8571 6.2447 27.3585 5.68384 26.7747 5.22133C25.2267 4 23.04 4 18.6667 4H13.3333C8.96001 4 6.77468 4 5.22534 5.22133C4.65201 5.672 4.15334 6.23333 3.75201 6.87867C2.66667 8.62133 2.66668 11.08 2.66668 16C2.66668 20.92 2.66667 23.3787 3.75201 25.1213C4.14294 25.7553 4.64154 26.3162 5.22534 26.7787C6.77334 28 8.96001 28 13.3333 28H18.6667C23.04 28 25.2253 28 26.7747 26.7787C27.3585 26.3162 27.8571 25.7553 28.248 25.1213C29.3333 23.3787 29.3333 20.92 29.3333 16Z" stroke="black" stroke-width="2" stroke-linecap="round" stroke-linejoin="round"/>
</svg>
