<svg width="24" height="25" viewBox="0 0 24 25" fill="none" xmlns="http://www.w3.org/2000/svg">
<path d="M10.1133 1.48734C10.0521 1.48734 9.99225 1.48945 9.93455 1.4932C9.84799 1.49898 9.76188 1.51022 9.67673 1.52685L8.03766 4.3672C8.24143 4.3145 8.45108 4.28791 8.66156 4.28807C9.66581 4.28807 10.5333 4.88704 10.9306 5.7456L12.7676 2.56541C12.5545 2.29513 12.0784 1.95295 11.5034 1.7437C11.0468 1.57748 10.5417 1.4872 10.1133 1.48734ZM14.1314 2.30906C14.0572 2.30765 13.9875 2.31126 13.9219 2.31787L11.8345 5.9346C12.0659 5.86494 12.3062 5.82941 12.5479 5.82913C13.5237 5.82913 14.3724 6.39398 14.7847 7.21345L16.8076 3.70804C16.6142 3.38348 16.1553 2.97384 15.5992 2.69873C15.1098 2.45671 14.5583 2.31726 14.1314 2.3091L14.1314 2.30906ZM6.51422 3.68456C6.00319 3.69487 5.5132 3.87595 4.99078 4.25737C4.50206 4.61404 3.99844 5.1547 3.47752 5.8672L5.71875 6.63032L7.34325 3.81641C7.09022 3.73288 6.84811 3.69018 6.61669 3.68456C6.58247 3.68376 6.54825 3.6839 6.51417 3.68456H6.51422ZM17.3584 4.50782L15.2578 8.14795C15.5074 8.06277 15.7741 8.01463 16.0518 8.01463C17.0049 8.01463 17.8351 8.55885 18.2505 9.35207L19.9835 6.35207C19.8164 5.95363 19.3789 5.44949 18.8496 5.08504C18.3384 4.73282 17.7505 4.52376 17.3584 4.50782ZM8.66156 5.16407C7.75828 5.16407 7.03416 5.8882 7.03416 6.79298C7.03416 7.69776 7.75837 8.42188 8.66166 8.42188C9.56494 8.42188 10.2876 7.6979 10.2876 6.79298C10.2876 5.8882 9.56494 5.16407 8.66156 5.16407ZM2.74359 6.54398C2.26266 8.9107 2.30944 11.3296 3.02789 13.3906C3.03661 13.4158 3.04533 13.4403 3.05423 13.4654L3.06305 13.455L3.39703 13.9341C3.43791 13.9927 3.48187 14.0522 3.52734 14.1113C3.48811 12.1795 4.02 9.92793 5.28225 7.40816L2.74359 6.54407V6.54398ZM12.5478 6.70509C11.6445 6.70509 10.9219 7.42771 10.9219 8.33259C10.9219 9.23727 11.6445 9.96149 12.5479 9.96149C13.4512 9.96149 14.1753 9.23746 14.1753 8.33259C14.1753 7.42771 13.4512 6.70509 12.5478 6.70509H12.5478ZM20.4829 7.29984L18.5243 10.6924C18.5221 10.7212 18.5203 10.7503 18.517 10.7788C18.722 10.7207 18.934 10.6912 19.147 10.691C20.1453 10.691 21.002 11.3261 21.3369 12.2115L23.0493 9.24665C22.8885 8.83134 22.4578 8.30484 21.9345 7.91948C21.4367 7.55291 20.8638 7.32885 20.4829 7.29988L20.4829 7.29984ZM6.24605 7.45068C4.68225 10.4394 4.21387 12.9809 4.46925 14.9786C4.47548 15.0275 4.48266 15.0753 4.48973 15.1236C5.42958 15.9638 6.7013 16.8073 8.06395 17.5478C9.94692 18.5711 12.006 19.4172 13.5982 19.8974C15.5683 19.1828 17.55 17.7179 19.1836 15.3755C19.1715 15.3757 19.1593 15.3769 19.1471 15.3769C17.8592 15.3769 16.8061 14.323 16.8061 13.0347C16.8061 12.9765 16.8093 12.919 16.8135 12.8618C16.5676 12.942 16.3105 12.983 16.0518 12.9833C14.725 12.9833 13.6335 11.929 13.5718 10.6161C13.2502 10.762 12.9011 10.8374 12.548 10.8374C11.3445 10.8374 10.3345 9.97724 10.0987 8.84076C9.69164 9.12829 9.19547 9.29779 8.6617 9.29779C7.51186 9.29779 6.53677 8.51198 6.24623 7.45063L6.24605 7.45068ZM16.0518 8.89063C15.1596 8.89063 14.4448 9.60548 14.4448 10.4991C14.4448 11.3926 15.1597 12.1074 16.0517 12.1074C16.9439 12.1074 17.6572 11.3928 17.6572 10.499C17.6572 9.60543 16.9439 8.89063 16.0518 8.89063ZM19.1469 11.5684C18.3331 11.5684 17.6821 12.2194 17.6821 13.0346C17.6821 13.85 18.3331 14.501 19.1469 14.501C19.9609 14.501 20.6118 13.8501 20.6118 13.0347C20.6118 12.2194 19.9609 11.5684 19.1469 11.5684V11.5684ZM3.04252 14.9024C2.70935 15.3361 2.39128 15.7812 2.08889 16.2369C2.23992 16.6662 2.5628 17.1481 3.05719 17.6416C3.70875 18.2921 4.64222 18.9554 5.76703 19.5664C7.71656 20.6253 10.2412 21.5284 12.8935 22.0288C13.0427 21.5937 13.1713 21.1518 13.2788 20.7045C11.6211 20.2007 9.56597 19.3609 7.64503 18.3169C5.79862 17.3135 4.09819 16.1532 3.04252 14.9024ZM1.53375 17.1201C1.32534 17.4724 1.13611 17.817 0.965344 18.1558C1.03411 18.5809 1.33861 19.1022 1.88377 19.6426C2.45789 20.2117 3.28252 20.7956 4.2788 21.333C6.20461 22.3718 8.76848 23.2418 11.4141 23.6387H12.2286C12.353 23.3834 12.4698 23.1245 12.5787 22.8623C9.89386 22.341 7.35403 21.4265 5.34825 20.3369C4.16887 19.6963 3.17437 18.9952 2.439 18.2613C2.06812 17.891 1.75978 17.511 1.53384 17.1201H1.53375ZM0.855469 19.8169V21.415C0.904547 21.5229 1.00509 21.6719 1.17773 21.8355C1.4243 22.069 1.79545 22.3243 2.24855 22.5635C3.13355 23.0308 4.33139 23.4389 5.55905 23.6387H7.54687C6.19655 23.2124 4.94316 22.6863 3.86278 22.1035C2.81217 21.5368 1.92516 20.9174 1.26708 20.2651C1.11834 20.1177 0.980812 19.9686 0.855516 19.817L0.855469 19.8169ZM0.855469 22.7129V23.6387H2.46534C2.24691 23.5427 2.03723 23.4426 1.83984 23.3384C1.46812 23.142 1.13616 22.934 0.855469 22.7129V22.7129Z" fill="black"/>
</svg>
